<svg width="67" height="20" viewBox="0 0 67 20" fill="none" xmlns="http://www.w3.org/2000/svg">
<g clip-path="url(#clip0_401_500)">
<path d="M26.3508 3.91537V6.97424H18.6204V3.91537H26.3508ZM20.1176 1.1012H24.3342V11.8837C24.3342 12.0469 24.3622 12.1845 24.4182 12.2967C24.4742 12.4038 24.5608 12.4853 24.6779 12.5414C24.7951 12.5924 24.9453 12.6179 25.1286 12.6179C25.2559 12.6179 25.4036 12.6026 25.5717 12.572C25.7448 12.5414 25.8721 12.5159 25.9536 12.4955L26.5647 15.4626C26.3763 15.5187 26.1064 15.5875 25.755 15.6691C25.4087 15.7507 24.9962 15.8042 24.5175 15.8297C23.5499 15.8807 22.7377 15.7813 22.0807 15.5315C21.4238 15.2766 20.9298 14.8763 20.5988 14.3308C20.2678 13.7853 20.1074 13.1022 20.1176 12.2814V1.1012Z" fill="white"/>
<path d="M33.5982 15.8756C32.325 15.8756 31.2352 15.6232 30.3287 15.1185C29.4223 14.6087 28.7271 13.9001 28.2434 12.9926C27.7596 12.08 27.5177 11.0222 27.5177 9.819C27.5177 8.61584 27.7596 7.56053 28.2434 6.65306C28.7271 5.7405 29.4223 5.03186 30.3287 4.52714C31.2352 4.01733 32.325 3.76242 33.5982 3.76242C34.8713 3.76242 35.9611 4.01733 36.8676 4.52714C37.774 5.03186 38.4692 5.7405 38.953 6.65306C39.4368 7.56053 39.6786 8.61584 39.6786 9.819C39.6786 11.0222 39.4368 12.08 38.953 12.9926C38.4692 13.9001 37.774 14.6087 36.8676 15.1185C35.9611 15.6232 34.8713 15.8756 33.5982 15.8756ZM33.6287 12.7555C33.9852 12.7555 34.2933 12.6357 34.553 12.3961C34.8127 12.1565 35.0139 11.8149 35.1565 11.3714C35.2991 10.9278 35.3704 10.4002 35.3704 9.78841C35.3704 9.17154 35.2991 8.64388 35.1565 8.20544C35.0139 7.76191 34.8127 7.42033 34.553 7.18072C34.2933 6.94111 33.9852 6.8213 33.6287 6.8213C33.2519 6.8213 32.9285 6.94111 32.6586 7.18072C32.3887 7.42033 32.1824 7.76191 32.0398 8.20544C31.8972 8.64388 31.826 9.17154 31.826 9.78841C31.826 10.4002 31.8972 10.9278 32.0398 11.3714C32.1824 11.8149 32.3887 12.1565 32.6586 12.3961C32.9285 12.6357 33.2519 12.7555 33.6287 12.7555Z" fill="white"/>
<path d="M45.6495 15.8144C44.8143 15.8144 44.0453 15.5952 43.3426 15.1567C42.6449 14.7183 42.0847 14.053 41.662 13.1608C41.2444 12.2687 41.0356 11.1445 41.0356 9.78841C41.0356 8.37113 41.2546 7.21895 41.6926 6.33188C42.1356 5.4448 42.706 4.79479 43.4037 4.38184C44.1064 3.9689 44.8449 3.76242 45.6189 3.76242C46.1995 3.76242 46.7087 3.86438 47.1467 4.06831C47.5847 4.26714 47.9513 4.53479 48.2467 4.87126C48.542 5.20264 48.7661 5.56716 48.9189 5.96481H48.98V0H53.1966V15.6615H49.0106V13.7344H48.9189C48.7559 14.132 48.5217 14.4889 48.2161 14.805C47.9157 15.116 47.549 15.3632 47.1161 15.5468C46.6884 15.7252 46.1995 15.8144 45.6495 15.8144ZM47.2078 12.572C47.5948 12.572 47.9259 12.4598 48.2008 12.2355C48.4809 12.0061 48.6948 11.6849 48.8425 11.272C48.9953 10.8539 49.0717 10.3594 49.0717 9.78841C49.0717 9.20722 48.9953 8.71016 48.8425 8.29721C48.6948 7.87916 48.4809 7.56053 48.2008 7.34131C47.9259 7.11699 47.5948 7.00483 47.2078 7.00483C46.8208 7.00483 46.4898 7.11699 46.2148 7.34131C45.9449 7.56053 45.7361 7.87916 45.5884 8.29721C45.4458 8.71016 45.3745 9.20722 45.3745 9.78841C45.3745 10.3696 45.4458 10.8692 45.5884 11.2873C45.7361 11.7002 45.9449 12.0188 46.2148 12.2432C46.4898 12.4624 46.8208 12.572 47.2078 12.572Z" fill="white"/>
<path d="M60.9195 15.8756C59.6463 15.8756 58.5565 15.6232 57.6501 15.1185C56.7436 14.6087 56.0485 13.9001 55.5647 12.9926C55.0809 12.08 54.839 11.0222 54.839 9.819C54.839 8.61584 55.0809 7.56053 55.5647 6.65306C56.0485 5.7405 56.7436 5.03186 57.6501 4.52714C58.5565 4.01733 59.6463 3.76242 60.9195 3.76242C62.1926 3.76242 63.2824 4.01733 64.1889 4.52714C65.0953 5.03186 65.7905 5.7405 66.2743 6.65306C66.7581 7.56053 67 8.61584 67 9.819C67 11.0222 66.7581 12.08 66.2743 12.9926C65.7905 13.9001 65.0953 14.6087 64.1889 15.1185C63.2824 15.6232 62.1926 15.8756 60.9195 15.8756ZM60.95 12.7555C61.3065 12.7555 61.6146 12.6357 61.8743 12.3961C62.134 12.1565 62.3352 11.8149 62.4778 11.3714C62.6204 10.9278 62.6917 10.4002 62.6917 9.78841C62.6917 9.17154 62.6204 8.64388 62.4778 8.20544C62.3352 7.76191 62.134 7.42033 61.8743 7.18072C61.6146 6.94111 61.3065 6.8213 60.95 6.8213C60.5732 6.8213 60.2498 6.94111 59.9799 7.18072C59.71 7.42033 59.5037 7.76191 59.3611 8.20544C59.2186 8.64388 59.1473 9.17154 59.1473 9.78841C59.1473 10.4002 59.2186 10.9278 59.3611 11.3714C59.5037 11.8149 59.71 12.1565 59.9799 12.3961C60.2498 12.6357 60.5732 12.7555 60.95 12.7555Z" fill="white"/>
<g clip-path="url(#clip1_401_500)">
<path d="M5.92703 1.62795C7.60794 3.76421 8.50523 6.39858 8.4727 9.10176V9.74704L9.02728 10.0849C9.74383 10.5191 10.2782 11.1926 10.5331 11.9827C10.3093 11.8178 10.0752 11.6669 9.83218 11.531L8.35331 10.6998L8.08757 12.3775C8.06455 12.5257 8.0337 12.6727 7.99514 12.8178H3.85122C3.7896 12.628 3.73953 12.4382 3.69332 12.2408L3.35826 10.7225L1.99492 11.4817C1.76716 11.6092 1.54725 11.7499 1.33636 11.903C1.5962 11.1221 2.11944 10.4523 2.81909 10.0051L3.34671 9.66733V9.0676C3.35622 6.37538 4.26432 3.76105 5.93088 1.62795H5.92703ZM5.93088 0.0489197C5.84445 0.0491298 5.76101 0.080137 5.69596 0.136222L5.6613 0.166588C3.44051 2.61456 2.20733 5.78002 2.19519 9.06381C1.25279 9.66642 0.555212 10.5762 0.224352 11.6343C-0.106509 12.6924 -0.0496086 13.8314 0.385108 14.8523C0.843059 13.8555 1.6086 13.0266 2.57261 12.4838C2.66929 12.8965 2.79804 13.3013 2.95773 13.6946C2.97798 13.7702 3.02287 13.8372 3.0855 13.8852C3.14812 13.9332 3.22501 13.9596 3.30434 13.9603H8.64985C8.75769 13.9603 8.86552 13.8578 8.91944 13.6984C9.0753 13.3245 9.18394 12.9331 9.24294 12.5331C10.2088 13.0737 10.975 13.9032 11.4304 14.9017C11.8914 13.8858 11.9628 12.7396 11.6313 11.6758C11.2998 10.6119 10.5881 9.70277 9.62807 9.11695C9.66615 5.81379 8.43951 2.61787 6.19277 0.166588C6.15931 0.12972 6.11836 0.100193 6.07259 0.0799224C6.02681 0.0596516 5.97722 0.0490891 5.92703 0.0489197L5.93088 0.0489197Z" fill="white"/>
<path d="M5.92704 8.74877C5.63123 8.74876 5.34205 8.66245 5.09594 8.5007C4.84983 8.33895 4.65781 8.10902 4.54409 7.83988C4.43037 7.57074 4.40003 7.27444 4.45691 6.98833C4.51378 6.70223 4.65532 6.43912 4.86369 6.23217C5.07205 6.02523 5.33791 5.88371 5.62775 5.82546C5.9176 5.76721 6.21845 5.79483 6.49239 5.90484C6.76633 6.01485 7.0011 6.20233 7.16709 6.44364C7.33309 6.68496 7.42289 6.9693 7.42517 7.26084C7.42978 7.44977 7.39657 7.63775 7.32744 7.81403C7.25831 7.9903 7.15462 8.15143 7.02229 8.2882C6.88996 8.42496 6.73159 8.5347 6.55621 8.61112C6.38084 8.68754 6.19191 8.72916 6.00021 8.73359C5.97598 8.73742 5.95128 8.73742 5.92704 8.73359V8.74877Z" fill="white"/>
<path d="M8.01057 14.9055C7.9142 14.9024 7.8182 14.9184 7.72818 14.9524C7.63816 14.9864 7.55594 15.0378 7.48634 15.1036C7.41675 15.1694 7.36118 15.2482 7.3229 15.3354C7.28462 15.4226 7.2644 15.5164 7.26343 15.6115V17.851C7.26343 18.0462 7.34214 18.2335 7.48226 18.3716C7.62238 18.5097 7.81241 18.5873 8.01057 18.5873C8.20872 18.5873 8.39876 18.5097 8.53887 18.3716C8.67899 18.2335 8.75771 18.0462 8.75771 17.851V15.6418C8.76078 15.5472 8.74471 15.4529 8.71043 15.3644C8.67615 15.2759 8.62434 15.195 8.55802 15.1265C8.49171 15.058 8.41221 15.0031 8.32417 14.9652C8.23613 14.9272 8.14131 14.9069 8.04523 14.9055H8.01057Z" fill="white"/>
<path d="M3.8513 14.9055C3.7533 14.9003 3.65526 14.9147 3.56301 14.9477C3.47076 14.9807 3.38619 15.0317 3.31433 15.0975C3.24246 15.1634 3.18478 15.2428 3.1447 15.3311C3.10463 15.4194 3.08298 15.5148 3.08105 15.6115V17.851C3.08105 18.0463 3.15977 18.2335 3.29989 18.3716C3.44 18.5097 3.63004 18.5873 3.82819 18.5873C4.02635 18.5873 4.21639 18.5097 4.3565 18.3716C4.49662 18.2335 4.57533 18.0463 4.57533 17.851V15.6418C4.57841 15.5472 4.56234 15.4529 4.52806 15.3644C4.49378 15.2759 4.44197 15.195 4.37565 15.1265C4.30934 15.058 4.22984 15.0031 4.1418 14.9652C4.05376 14.9272 3.95894 14.9069 3.86285 14.9055H3.8513Z" fill="white"/>
<path d="M5.87312 14.9055C5.77702 14.9035 5.68146 14.9201 5.5919 14.9545C5.50233 14.9889 5.42053 15.0404 5.35114 15.1059C5.28176 15.1715 5.22616 15.2499 5.18753 15.3366C5.14889 15.4234 5.12798 15.5168 5.12598 15.6115V18.6974C5.12598 18.8927 5.20469 19.08 5.34481 19.2181C5.48492 19.3562 5.67496 19.4338 5.87312 19.4338C6.07127 19.4338 6.26131 19.3562 6.40142 19.2181C6.54154 19.08 6.62026 18.8927 6.62026 18.6974V15.6608C6.62333 15.5662 6.60726 15.4718 6.57298 15.3834C6.5387 15.2949 6.48689 15.214 6.42057 15.1455C6.35426 15.077 6.27476 15.0221 6.18672 14.9842C6.09868 14.9462 6.00386 14.9259 5.90778 14.9244L5.87312 14.9055Z" fill="white"/>
</g>
</g>
<defs>
<clipPath id="clip0_401_500">
<rect width="67" height="19.43" fill="white"/>
</clipPath>
<clipPath id="clip1_401_500">
<rect width="11.831" height="19.3811" fill="white" transform="translate(0 0.0489197)"/>
</clipPath>
</defs>
</svg>
